<svg xmlns="http://www.w3.org/2000/svg" xmlns:xlink="http://www.w3.org/1999/xlink" xml:space="preserve" viewBox="0 0 52.92 52.92">
  <defs>
    <clipPath id="n" clipPathUnits="userSpaceOnUse">
      <path fill="#3f80c2" stroke-linecap="round" stroke-linejoin="round" stroke-width=".47" d="M82.98 93.98h52.92v52.92H82.98z"/>
    </clipPath>
    <clipPath id="l" clipPathUnits="userSpaceOnUse">
      <path fill="#3f80c2" stroke-linecap="round" stroke-linejoin="round" stroke-width=".47" d="M82.98 93.98h52.92v52.92H82.98z"/>
    </clipPath>
    <clipPath id="j" clipPathUnits="userSpaceOnUse">
      <path fill="#3f80c2" stroke-linecap="round" stroke-linejoin="round" stroke-width=".47" d="M82.98 93.98h52.92v52.92H82.98z"/>
    </clipPath>
    <clipPath id="h" clipPathUnits="userSpaceOnUse">
      <path fill="#3f80c2" stroke-linecap="round" stroke-linejoin="round" stroke-width=".47" d="m-2.81 120.62 39.51 35.2-35.2 39.52-39.51-35.2z"/>
    </clipPath>
    <clipPath id="g" clipPathUnits="userSpaceOnUse">
      <path fill="#3f80c2" stroke-linecap="round" stroke-linejoin="round" stroke-width=".47" d="M78.14 91.93h52.92v52.92H78.14z"/>
    </clipPath>
    <clipPath id="f" clipPathUnits="userSpaceOnUse">
      <path fill="#3f80c2" stroke-linecap="round" stroke-linejoin="round" stroke-width=".47" d="M78.14 91.93h52.92v52.92H78.14z"/>
    </clipPath>
    <clipPath id="e" clipPathUnits="userSpaceOnUse">
      <path fill="#3f80c2" stroke-linecap="round" stroke-linejoin="round" stroke-width=".47" d="m-7.78 125.13 37.42 37.42-37.42 37.42-37.42-37.42z"/>
    </clipPath>
    <clipPath id="d" clipPathUnits="userSpaceOnUse">
      <path fill="#3f80c2" stroke-linecap="round" stroke-linejoin="round" stroke-width=".47" d="M82.98 93.98h52.92v52.92H82.98z"/>
    </clipPath>
    <radialGradient xlink:href="#a" id="k" cx="84.46" cy="157.55" r="17.56" fx="84.46" fy="157.55" gradientTransform="rotate(-90 26.92 370.09) scale(3.014)" gradientUnits="userSpaceOnUse"/>
    <radialGradient xlink:href="#b" id="m" cx="71.65" cy="168.5" r="8.1" fx="71.65" fy="168.5" gradientTransform="rotate(-90 -179.16 789.5) scale(6.53)" gradientUnits="userSpaceOnUse"/>
    <radialGradient xlink:href="#c" id="i" cx="85.01" cy="127.69" r="15.2" fx="85.01" fy="127.69" gradientTransform="rotate(90 364.73 162.78) scale(3.481)" gradientUnits="userSpaceOnUse"/>
    <linearGradient id="c">
      <stop offset="0" stop-color="#ec3231"/>
      <stop offset="1" stop-color="#f34e06" stop-opacity="0"/>
    </linearGradient>
    <linearGradient id="b">
      <stop offset="0" stop-color="#ec3231"/>
      <stop offset="1" stop-color="#f34e06" stop-opacity="0"/>
    </linearGradient>
    <linearGradient id="a">
      <stop offset="0" stop-color="#ec3231"/>
      <stop offset="1" stop-color="#f34e06" stop-opacity="0"/>
    </linearGradient>
  </defs>
  <path fill="#4177b9" d="M82.98 93.98h52.92v52.92H82.98z" clip-path="url(#d)" transform="translate(-82.98 -93.98)"/>
  <path d="M-29.85 161.69h44.64v53.56h-44.64z" clip-path="url(#e)" opacity=".1" style="mix-blend-mode:darken" transform="rotate(-45 -154.93 53.17)"/>
  <g transform="translate(-78.14 -91.93)">
    <circle cx="104.59" cy="118.07" r="21.45" fill="#fff" clip-path="url(#f)"/>
    <path fill="#4177b9" d="M105.62 107.5v21.14l11.87-10.57z" clip-path="url(#g)"/>
    <path fill="#fb8b04" d="M14.4 141.07a22.32 22.32 0 0 0-27.01-2.03 22.32 22.32 0 0 0-1.4.99 22.32 22.32 0 0 0-.32.24 22.32 22.32 0 0 0-.61.5 22.32 22.32 0 0 0-.86.77 22.32 22.32 0 0 0-.36.35 22.32 22.32 0 0 0-.95 1 22.32 22.32 0 0 0-.88 1.06 22.32 22.32 0 0 0-.3.4 22.32 22.32 0 0 0-.67.93 22.32 22.32 0 0 0-.43.67 22.32 22.32 0 0 0-.2.34 22.32 22.32 0 0 0-.83 1.51 22.32 22.32 0 0 0 5.12 26.6 22.32 22.32 0 0 0 31.51-1.82 22.32 22.32 0 0 0-1.81-31.51zm-4.27 4.79a15.9 15.9 0 0 1 1.3 22.45 15.9 15.9 0 0 1-22.46 1.3 15.9 15.9 0 0 1-5.3-11.2H.32l-1.91-16.53a15.9 15.9 0 0 1 11.72 3.98z" clip-path="url(#h)" transform="rotate(-41.7)"/>
  </g>
  <g opacity=".71" style="mix-blend-mode:hard-light">
    <path fill="url(#i)" d="M104.69 98.32a22.32 22.32 0 0 0-16.78 15.92 22.32 22.32 0 0 0-.39 1.68 22.32 22.32 0 0 0-.07.39 22.32 22.32 0 0 0-.13.78 22.32 22.32 0 0 0-.13 1.15 22.32 22.32 0 0 0-.03.5 22.32 22.32 0 0 0-.05 1.37 22.32 22.32 0 0 0 .05 1.38 22.32 22.32 0 0 0 .03.5 22.32 22.32 0 0 0 .13 1.15 22.32 22.32 0 0 0 .13.78 22.32 22.32 0 0 0 .07.38 22.32 22.32 0 0 0 .39 1.68 22.32 22.32 0 0 0 16.77 15.93 22.32 22.32 0 0 0 4.74-1.63 22.32 22.32 0 0 1-.74-.35 22.32 22.32 0 0 1-1.33-.75 22.32 22.32 0 0 1-1.27-.83 22.32 22.32 0 0 1-1.21-.92 22.32 22.32 0 0 1-1.15-1 22.32 22.32 0 0 1-1.08-1.08 22.32 22.32 0 0 1-1-1.15 22.32 22.32 0 0 1-.31-.4 15.9 15.9 0 0 1-3.3-2.61l1.05-.93 11.38-10.15-11.38-10.14-1.05-.93a15.9 15.9 0 0 1 3.3-2.6 15.9 15.9 0 0 1 8.1-2.23 15.9 15.9 0 0 1 8.08 2.21 22.32 22.32 0 0 0-8.08-6.48 22.32 22.32 0 0 0-4.74-1.62zm4.74 41.97a22.32 22.32 0 0 1-4.77 1.62 22.32 22.32 0 0 0 4.77.52 22.32 22.32 0 0 0 4.76-.52 22.32 22.32 0 0 1-4.76-1.62z" clip-path="url(#j)" opacity="1" style="mix-blend-mode:multiply" transform="translate(-82.98 -93.98)"/>
    <path fill="url(#k)" d="M109.43 97.8a22.32 22.32 0 0 0-1.64.06 22.32 22.32 0 0 0-.8.09 22.32 22.32 0 0 0-.83.1 22.32 22.32 0 0 0-.92.16 22.32 22.32 0 0 0-.56.11 22.32 22.32 0 0 1 4.75 1.61 22.32 22.32 0 0 0-.01 0 22.32 22.32 0 0 1 1.2.61 22.32 22.32 0 0 1 1.37.81 22.32 22.32 0 0 1 1.3.91 22.32 22.32 0 0 1 1.24 1 22.32 22.32 0 0 1 1.16 1.09 22.32 22.32 0 0 1 1.09 1.16 22.32 22.32 0 0 1 .75.92 15.9 15.9 0 0 0-.01 0 15.9 15.9 0 0 1 7.8 13.68 15.9 15.9 0 0 1-15.9 15.9 15.9 15.9 0 0 1-8.1-2.23 22.32 22.32 0 0 0 8.1 6.5 22.32 22.32 0 0 0 1.38.6 22.32 22.32 0 0 0 1.57.56 22.32 22.32 0 0 0 1.61.43 22.32 22.32 0 0 0 .2.04 22.32 22.32 0 0 0 17.05-17.05 22.32 22.32 0 0 0 0-.01 22.32 22.32 0 0 0 .28-1.55 22.32 22.32 0 0 0 0-.03 22.32 22.32 0 0 0 .17-1.55 22.32 22.32 0 0 0 0-.04 22.32 22.32 0 0 0 .06-1.57 22.32 22.32 0 0 0-.05-1.54 22.32 22.32 0 0 0 0-.08 22.32 22.32 0 0 0-.17-1.51 22.32 22.32 0 0 0-.01-.08 22.32 22.32 0 0 0-.27-1.5 22.32 22.32 0 0 0-.01-.06 22.32 22.32 0 0 0-.39-1.5 22.32 22.32 0 0 0-.5-1.5 22.32 22.32 0 0 0 0-.02 22.32 22.32 0 0 0-.6-1.45 22.32 22.32 0 0 0-.02-.03 22.32 22.32 0 0 0-.7-1.4 22.32 22.32 0 0 0-.01-.03 22.32 22.32 0 0 0-.8-1.35 22.32 22.32 0 0 0-1.9-2.54 22.32 22.32 0 0 0-.01-.01 22.32 22.32 0 0 0-1.07-1.16 22.32 22.32 0 0 0-.02-.01 22.32 22.32 0 0 0-1.15-1.08 22.32 22.32 0 0 0-3.92-2.72 22.32 22.32 0 0 0-1.42-.72 22.32 22.32 0 0 0-4.52-1.5 22.32 22.32 0 0 0-1.57-.3 22.32 22.32 0 0 0-.02 0 22.32 22.32 0 0 0-1.57-.16 22.32 22.32 0 0 0-.03 0 22.32 22.32 0 0 0-1.58-.06zm0 6.41a15.9 15.9 0 0 0-1.33.06 15.9 15.9 0 0 1 1.33-.06zm1.17.05a15.9 15.9 0 0 1 .08 0 15.9 15.9 0 0 0-.08 0zm-2.93.06a15.9 15.9 0 0 0-.88.12 15.9 15.9 0 0 1 .88-.12zm-1.37.22a15.9 15.9 0 0 0-.82.18 15.9 15.9 0 0 1 .82-.18zm6.7.08a15.9 15.9 0 0 1 .06.02 15.9 15.9 0 0 0-.05-.02zm-8.01.24a15.9 15.9 0 0 0-.8.25 15.9 15.9 0 0 1 .8-.25zm-1.27.42a15.9 15.9 0 0 0-.8.34 15.9 15.9 0 0 1 .8-.34zm11.6.07a15.9 15.9 0 0 1 .05.02 15.9 15.9 0 0 0-.05-.02zm-12.82.46a15.9 15.9 0 0 0-1.05.56 15.9 15.9 0 0 1 1.05-.56zm-1.16.62a15.9 15.9 0 0 0-.02 0 22.32 22.32 0 0 0 0 .01 15.9 15.9 0 0 1 .02-.01zm-2.26 3.55a22.32 22.32 0 0 0-2.45 10.13 22.32 22.32 0 0 0 2.45 10.14l11.38-10.14zm17.86 24.53a22.32 22.32 0 0 1-.17.2 22.32 22.32 0 0 1-.31.36 22.32 22.32 0 0 0 .48-.56zm-1.14 1.25a22.32 22.32 0 0 1-.11.12 22.32 22.32 0 0 1-.8.76 22.32 22.32 0 0 0 .91-.88zm-.99.95a22.32 22.32 0 0 1-.29.26 22.32 22.32 0 0 1-.66.55 22.32 22.32 0 0 1-.58.45 22.32 22.32 0 0 1-.08.06 22.32 22.32 0 0 0 .66-.51 22.32 22.32 0 0 0 .95-.81zm-2.5 1.94a22.32 22.32 0 0 1-.33.22 22.32 22.32 0 0 1-.16.1 22.32 22.32 0 0 0 .49-.32zm-1.48.91a22.32 22.32 0 0 1-.22.13 22.32 22.32 0 0 1-.11.05 22.32 22.32 0 0 0 .33-.18z" clip-path="url(#l)" opacity="1" style="mix-blend-mode:multiply" transform="translate(-82.98 -93.98)"/>
    <path fill="url(#m)" d="M109.43 99.93a22.32 22.32 0 0 0-8.1 6.5 15.9 15.9 0 0 1 8.1-2.22 15.9 15.9 0 0 1 8.1 2.22 22.32 22.32 0 0 0-8.1-6.5z" clip-path="url(#n)" opacity="1" style="mix-blend-mode:multiply" transform="translate(-82.98 -93.98)"/>
  </g>
</svg>
