<?xml version="1.0" encoding="utf-8"?>
<!-- Generator: Adobe Illustrator 22.0.1, SVG Export Plug-In . SVG Version: 6.00 Build 0)  -->
<svg version="1.1" id="Layer_1" xmlns="http://www.w3.org/2000/svg" xmlns:xlink="http://www.w3.org/1999/xlink" x="0px" y="0px"
     viewBox="0 0 64.667 73.667" enable-background="new 0 0 64.667 73.667" xml:space="preserve">
    <style>
        .primary {
            fill: #001D52;
        }
        @media (prefers-color-scheme: dark) {
            .primary { fill: white; }
        }
    </style>
<path class="primary" d="M35.16,55.704c-1.104,2.271-2.886,4.116-5.346,5.535c-2.46,1.419-5.062,2.129-7.806,2.129
	c-2.87,0-5.221-0.772-7.049-2.318c-1.83-1.545-2.744-3.69-2.744-6.434c0-6.276,5.362-9.414,16.085-9.414h6.86V55.704z M45.71,70.038
	v-0.757c-1.199-2.775-1.798-6.512-1.798-11.212V34.51c-0.127-5.172-1.862-9.233-5.204-12.182c-3.343-2.949-7.964-4.423-13.861-4.423
	c-3.722,0-7.136,0.694-10.242,2.081c-3.107,1.388-5.567,3.273-7.38,5.653c-1.814,2.382-2.72,4.849-2.72,7.404h8.799
	c0-2.239,1.056-4.147,3.17-5.724c2.113-1.576,4.731-2.365,7.853-2.365c3.564,0,6.26,0.907,8.09,2.72
	c1.829,1.814,2.744,4.251,2.744,7.309v4.021h-8.516c-7.349,0-13.049,1.475-17.102,4.423c-4.053,2.95-6.079,7.089-6.079,12.419
	c0,4.384,1.616,8.003,4.849,10.857c3.233,2.855,7.372,4.282,12.419,4.282c5.645,0,10.502-2.113,14.571-6.34
	c0.315,2.587,0.725,4.384,1.23,5.393H45.71z"/>
    <path class="primary" d="M59.368,33.1c0,0,0.123,10.008-0.123,20.446c-0.245,10.438,2.333,16.333,2.333,16.333h-9.333
	c-1.965-4.789-1.597-11.052-1.597-11.052V19.777C60.35,24.689,59.368,33.1,59.368,33.1"/>
    <path fill="#00ABC8" d="M60.312,17.305c0,0-20.36-3.771-11.922-12.421C56.272-3.193,60.312,17.305,60.312,17.305"/>
    <path fill="#FFFFFF" d="M50.585,5.081c0,0,3.754,0.921,8.009,10.523C58.595,15.604,53.977,2.266,50.585,5.081"/>
</svg>
