<svg version="1.0" viewBox="0 0 586 586" xmlns="http://www.w3.org/2000/svg">
    <style>
        .primary {
            fill: white;
        }

        .background {
            fill: #e87572;
        }

        @media (prefers-color-scheme: dark) {
            .primary { fill: #e87572; }
            .background { fill: transparent; }
        }
    </style>
    <rect class="background" x="0" y="0" width="586" height="586"/>
    <g class="primary">
        <path
            d="m373.5 204.3c5.1 7.4 8.5 15.1 8.5 19.6s-3.1 10.7-10.1 20.3c-17.4 23.8-22.9 31.6-22.9 32.5 0 0.6 2.7 5.1 5.9 10 13.4 20.3 19.1 33.9 21.1 50 2.3 18.1-1.9 37.3-11.8 53.8-5.6 9.4-20.2 23.2-29.9 28.3-14.5 7.6-21 9.4-36.7 9.9-14.5 0.6-19.9-0.1-31.1-3.9-25.7-8.7-45.6-30.3-53.1-57.7-3-10.7-3.3-29.7-0.8-39.5 2-7.8 8.4-22.8 9.6-22.4 0.4 0.2 4.9 5.5 9.8 11.8 8.9 11.3 9 11.6 8.3 15.5-0.4 2.2-0.8 8.7-0.8 14.5 0 9 0.4 11.5 2.8 18 7.6 20.4 25.8 34.2 47.3 35.7 4.9 0.4 10.8 0.1 14.6-0.6 20-3.9 37.2-19.9 42.4-39.6 1.8-6.5 1.8-21.6 0-28-2.9-10.9-11.7-26.6-26-46.4-3.6-5.1-6.6-9.4-6.6-9.6 0-0.3 9-12.9 20-28 28.9-39.7 29.8-41.2 32.7-51.4 0.4-1.7 0.7-1.5 6.8 7.2z"/>
        <path
            d="m335.8 152.5c8.5 12.5 9.9 20.6 5.3 29.6-2 3.8-15.2 22.6-51.7 73.4-7.5 10.4-13.8 19.5-14.1 20.2s7.4 11.7 17 24.5c24.3 32.6 27 37.9 24.6 50-1.3 6.7-6.4 15.3-9.1 15.3-0.9 0-4.5-3.8-8-8.5-10-13.4-37.5-49.6-44.7-59-14.5-18.8-16.1-21.2-15.4-22.3 2.6-4.3 33.9-47.9 55.7-77.7 28.4-38.7 32.6-45 32.6-49 0-5.8 2.2-4.8 7.8 3.5z"/>
        <path
            d="m296.7 100.3c7.9 11.7 9.9 18.9 7.1 26.8-1.2 3.6-8.6 14.2-33.3 47.6-69.7 94.3-86.7 121.6-92.1 147.7-4.7 23-3.2 43.8 4.8 65.6 10 27.5 31.3 51.2 57.3 63.9 16 7.8 24.4 10.3 42.2 12.2 39.9 4.5 80.4-13.4 105.3-46.4 5.4-7.1 15.7-26.4 17.3-32.2 0.3-1.1 1.6-5.6 2.8-10 2.1-7.2 2.3-10.1 2.3-28.5 0-21.2-0.1-21.8-5.2-38.5-1.6-5.1-6.7-15.7-11.5-23.8-2.6-4.3-4.7-8.3-4.7-8.8 0-0.6 1.8-3.3 3.9-6.2 4.8-6.3 9.1-15.2 9.1-18.9 0-1.5 0.4-2.9 0.9-3.2 0.4-0.3 4.4 5.2 8.7 12.2 20.7 33.3 27.5 54.5 27.7 86.2 0.1 22.7-2.4 36.2-10.4 56.3-15 37.8-48.4 69.8-86.5 82.5-18.5 6.2-29.9 8.2-48.4 8.2-30.6 0-57.2-8.1-83-25.3-9.7-6.5-31.3-28.1-37.8-37.8-22.3-33.5-30.6-72.9-23.2-109.9 7-34.4 20.8-57.5 92.7-155.3 32.8-44.6 33.4-45.4 38.5-52.7 5.7-8.2 7.8-12.2 7.8-15.3 0-5.5 2.3-4.4 7.7 3.6z"/>
    </g>
</svg>
