<?xml version="1.0" encoding="UTF-8"?>
<svg version="1.1" viewBox="0 0 600 600" xml:space="preserve" xmlns="http://www.w3.org/2000/svg"
><defs><linearGradient id="linearGradient21" x1="600" x2="0" y1="600" y2="0" gradientUnits="userSpaceOnUse"><stop stop-color="#5239c7" offset="0"/><stop
    stop-color="#dd47a0" offset="1"/></linearGradient></defs>
    <rect x="0" y="0" width="600" height="600" fill="url(#linearGradient21)"/>
    <g transform="translate(-25.467 -35.778)" fill="#fff">
        <path d="m92.573 464.54q-8.3542 0-12.796-4.7587-4.3357-4.7587-4.3357-13.43v-39.762q0-8.6714 4.3357-13.43 4.4415-4.7587 12.796-4.7587 8.3542 0 12.69 4.7587 4.4415 4.7587 4.4415 13.43v7.8254h-10.998v-8.5657q0-6.8737-5.8162-6.8737-5.8162 0-5.8162 6.8737v41.348q0 6.7679 5.8162 6.7679 5.8162 0 5.8162-6.7679v-11.315h10.998v10.469q0 8.6714-4.4415 13.43-4.3357 4.7587-12.69 4.7587zm34.03-75.082h15.757l12.055 74.024h-11.632l-2.115-14.699v0.21159h-13.219l-2.115 14.488h-10.786zm12.69 49.49-5.1817-36.589h-0.21148l-5.076 36.589zm21.657-49.49h14.593l11.315 44.309h0.21149v-44.309h10.363v74.024h-11.95l-13.959-54.038h-0.21149v54.038h-10.363zm55.074 0h15.757l12.055 74.024h-11.632l-2.115-14.699v0.21159h-13.219l-2.115 14.488h-10.786zm12.69 49.49-5.1817-36.589h-0.21149l-5.076 36.589zm21.657-49.49h17.237q8.9886 0 13.113 4.23 4.1242 4.1242 4.1242 12.796v4.5472q0 11.527-7.6139 14.593v0.21159q4.23 1.269 5.9219 5.1817 1.7977 3.9127 1.7977 10.469v13.007q0 3.1724 0.21149 5.1817 0.2115 1.9035 1.0575 3.807h-11.844q-0.63449-1.7977-0.84599-3.384-0.21149-1.5862-0.21149-5.7104v-13.536q0-5.076-1.692-7.0852-1.5862-2.0092-5.6047-2.0092h-4.0184v31.725h-11.632zm15.862 31.725q3.4897 0 5.1817-1.7977 1.7977-1.7977 1.7977-6.0277v-5.7104q0-4.0185-1.4805-5.8162-1.3747-1.7977-4.4415-1.7977h-5.2874v21.15zm36.673 10.786-14.065-42.511h12.373l7.9312 27.177h0.2115l7.9312-27.177h11.315l-14.065 42.511v31.513h-11.632zm47.015-42.511h11.209l5.1817 56.893h0.21158l5.4989-56.893h12.69l5.499 56.893h0.21159l5.1817-56.893h10.046l-7.5083 74.024h-14.488l-5.2874-49.913h-0.21159l-5.2874 49.913h-15.439zm62.582 0h11.632v30.138h12.478v-30.138h11.632v74.024h-11.632v-33.311h-12.478v33.311h-11.632zm54.334 0h15.757l12.055 74.024h-11.632l-2.115-14.699v0.21159h-13.219l-2.115 14.488h-10.786zm12.69 49.49-5.1817-36.589h-0.21159l-5.076 36.589zm21.657-49.49h17.237q8.9887 0 13.113 4.23 4.1242 4.1242 4.1242 12.796v4.5472q0 11.527-7.6139 14.593v0.21159q4.23 1.269 5.9219 5.1817 1.7977 3.9127 1.7977 10.469v13.007q0 3.1724 0.21158 5.1817 0.2116 1.9035 1.0575 3.807h-11.844q-0.63451-1.7977-0.84599-3.384-0.2116-1.5862-0.2116-5.7104v-13.536q0-5.076-1.692-7.0852-1.5862-2.0092-5.6047-2.0092h-4.0185v31.725h-11.632zm15.862 31.725q3.4897 0 5.1817-1.7977 1.7977-1.7977 1.7977-6.0277v-5.7104q0-4.0185-1.4805-5.8162-1.3748-1.7977-4.4415-1.7977h-5.2874v21.15zm27.685-31.725h30.773v10.575h-19.141v20.621h15.016v10.575h-15.016v32.253h-11.632z" aria-label="CANARY WHARF"/>
        <path d="m75.422 209.1h22.969v146.17h-22.969zm69.088 148.25q-16.496 0-25.266-9.3964-8.5612-9.3964-8.5612-26.519v-78.512q0-17.122 8.5612-26.519 8.77-9.3964 25.266-9.3964t25.057 9.3964q8.77 9.3964 8.77 26.519v15.452h-21.716v-16.914q0-13.573-11.485-13.573t-11.485 13.573v81.645q0 13.364 11.485 13.364t11.485-13.364v-22.343h21.716v20.672q0 17.122-8.77 26.519-8.5612 9.3964-25.057 9.3964zm44.24-148.25h62.643v20.881h-39.674v38.63h31.53v20.881h-31.53v44.894h39.674v20.881h-62.643zm107.88 0h34.036q17.749 0 25.892 8.3524 8.1436 8.1436 8.1436 25.266v8.9788q0 22.76-15.034 28.816v0.41762q8.3524 2.5057 11.693 10.232 3.5498 7.726 3.5498 20.672v25.684q0 6.2643 0.41763 10.232 0.41761 3.7586 2.0881 7.5171h-23.387q-1.2528-3.5498-1.6705-6.6819-0.4176-3.1322-0.4176-11.276v-26.728q0-10.023-3.341-13.99-3.1321-3.9674-11.067-3.9674h-7.9348v62.643h-22.969zm31.321 62.643q6.8907 0 10.232-3.5498 3.5497-3.5498 3.5497-11.902v-11.276q0-7.9348-2.9233-11.485-2.7146-3.5498-8.77-3.5498h-10.44v41.762zm49.46-62.643h22.969v146.17h-22.969zm36.722 0h28.816l22.343 87.491h0.41764v-87.491h20.463v146.17h-23.595l-27.563-106.7h-0.4176v106.7h-20.463zm85.793 0h22.969v61.599l29.233-61.599h22.969l-27.354 53.664 27.772 92.503h-24.013l-19.419-65.149-9.1876 18.584v46.565h-22.969z" aria-label="ICE RINK "/>
    </g>
</svg>
