<?xml version="1.0" encoding="UTF-8"?>
<svg role="img" title="University of Kent logo" version="1.1" viewBox="0 0 1888 1024" xmlns="http://www.w3.org/2000/svg"
     xmlns:cc="http://creativecommons.org/ns#" xmlns:dc="http://purl.org/dc/elements/1.1/"
     xmlns:rdf="http://www.w3.org/1999/02/22-rdf-syntax-ns#">
    <title>The University of Kent</title>
    <style>
        path { fill: #05345c }
        @media (prefers-color-scheme: dark) {
        path { fill: white; }
        }
    </style>
    <path d="m249.35 312.5c-62.164 0-75.272-33.925-75.272-70.26v-130.35h31.949v127.99c0 26.359 8.7703 46.262 45.394 46.262 32.239 0 46.84-13.493 46.84-50.358v-123.89h31.371v121.49c-0.0482 52.767-28.432 79.127-80.283 79.127zm211.69-2.8919v-93.487c0-18.119-5.0117-28.962-22.022-28.962-21.637 0-38.07 23.083-38.07 52.43v70.019h-30.985v-121.34c-7.0352-1.1086-13.204-2.3127-21.733-2.891v-19.372c16.384-1.7351 33.684-2.9392 51.611-1.9761 0 7.5654-0.91576 20.192-2.3609 28.721h0.57837c8.4812-18.746 26.07-31.612 50.406-31.612 33.106 0 43.612 21.058 43.612 46.551v101.97h-31.034zm67.321 0v-121.34c-7.0352-1.1086-13.156-2.3127-21.685-2.891v-19.372c16.384-1.7351 33.684-2.9874 52.719-2.0243v145.58h-31.034zm15.565-171.94c-10.505 0-19.324-8.2884-19.324-19.083 0-10.505 8.8185-19.035 19.324-19.035 10.746 0 19.565 8.5293 19.565 19.035 0 10.554-8.8185 19.083-19.565 19.083zm120.04 171.94h-31.949l-54.502-145.58h34.6l27.179 77.006c3.5176 9.9753 6.7469 20.24 9.3487 29.878h0.28918c2.3127-9.0595 5.2527-19.324 8.5294-28.673l27.805-78.211h33.684l-54.984 145.58zm180.66-70.356h-92.861c-0.91575 33.154 14.071 48.045 43.081 48.045 14.071 0 28.721-2.9392 41.876-8.7703l4.096 24.577c-15.18 6.1203-33.347 9.3487-51.514 9.3487-44.816 0-69.73-23.372-69.73-74.693 0-43.948 24.047-76.717 66.55-76.717 41.587 0 59.465 28.335 59.465 62.983-0.0964 4.1442-0.33738 9.0595-0.96395 15.228zm-59.754-55.032c-17.589 0-29.829 12.915-32.48 33.395h61.827c0.53017-20.866-10.891-33.395-29.347-33.395zm165 7.9518c-30.455-5.9275-44.526 14.601-44.526 58.26v59.224h-31.034v-121.34c-7.0352-1.1086-13.204-2.3127-21.685-2.891v-19.372c16.384-1.7351 33.636-2.9874 51.514-2.0243 0 8.192-1.1086 21.106-2.9392 32.19h0.67476c6.4577-19.613 20.817-37.732 49.442-34.84l-1.4459 30.793zm47.707 120.33c-11.132 0-23.083-1.4459-32.239-4.096l2.3609-26.648c9.1077 3.4694 20.77 5.5419 31.949 5.5419 16.384 0 27.805-7.3244 27.805-19.035 0-29.878-63.85-11.758-63.85-62.116 0-25.492 19.324-45.105 59.465-45.105 8.8186 0 19.035 1.1567 27.468 2.9392l-1.7351 25.155c-8.4812-2.6501-18.119-4.096-27.468-4.096-17.3 0-25.54 7.0352-25.54 18.167 0 28.673 64.477 12.866 64.477 61.827 0 27.564-23.998 47.467-62.694 47.467zm91.656-2.8919v-121.34c-7.0352-1.1086-13.204-2.3127-21.685-2.891v-19.372c16.432-1.7351 33.684-2.9874 52.767-2.0243v145.58h-31.082zm15.468-171.94c-10.506 0-19.228-8.2884-19.228-19.083 0-10.505 8.7703-19.035 19.228-19.035 10.843 0 19.661 8.5293 19.661 19.035 0.048 10.554-8.8186 19.083-19.661 19.083zm102.55 174.54c-31.082 0-40.43-11.999-40.43-44.526v-79.368h-27.805v-24.288h27.805v-46.31l31.323-8.4812v54.791h38.07v24.288h-38.07v69.73c0 21.637 4.4816 27.468 19.083 27.468 6.5058 0 12.625-0.86756 17.83-2.0243l2.6501 25.155c-8.7704 2.1207-20.77 3.5658-30.455 3.5658zm125.1 7.6136c-18.119 48.622-37.443 63.513-70.549 63.513-5.5901 0-13.445-0.91576-18.456-1.7351l3.4694-27.227c5.0117 1.4459 11.999 2.3127 17.83 2.3127 13.782 0 26.648-6.6986 36.334-32.769l5.2527-14.312-54.454-145.58h35.13l23.806 66.453c4.6261 12.915 8.1437 25.781 11.373 38.118h0.241c2.9874-11.758 9.1077-30.793 14.457-45.346l20.77-59.224h33.684l-58.887 155.8zm190.4-7.3244c-40.43 0-66.79-22.552-66.79-73.778 0-43.948 28.384-77.584 72.621-77.584 38.985 0 66.453 21.637 66.453 72.91 0 44.719-29.203 78.452-72.284 78.452zm3.2767-125.05c-19.083 0-37.491 14.65-37.491 47.997 0 32.865 12.866 50.068 37.154 50.068 20.192 0 37.154-15.806 37.154-49.49 0-31.034-11.999-48.574-36.816-48.574zm183.74-65.345c-6.3613-2.0725-13.445-2.9392-19.854-2.9392-18.794 0-27.227 10.264-27.227 33.058v11.806h37.78v24.288h-37.78v121.34h-31.034v-121.34h-27.902v-24.288h27.902v-11.132c0-39.804 19.035-59.176 56.815-59.176 8.2402 0 16.096 0.86755 23.709 2.65l-2.4091 25.733zm-442.28 798.01v-261.62c0-50.84-16.239-81.198-71.561-81.198-70.742 0-124.14 64.814-124.14 146.78v195.99h-101.25v-339.49c-22.938-3.2766-38.166-7.469-67.657-8.192v-54.116c53.441-4.9636 106.84-8.2402 165.05-5.7829 0 21.347-2.8428 56.622-7.6136 80.38h0.5302c27.709-52.526 86.403-88.572 165.63-88.572 107.9 0 142.25 59.08 142.25 130.35v285.42h-101.25zm346.91 7.3735c-101.39 0-131.99-33.636-131.99-124.71v-222.15h-87.078v-68.091h87.078v-125.68l102.35-23.806v149.53h124.33v68.091h-124.38v195.17c0 60.67 14.36 77.054 62.213 77.054 21.058 0 41.105-2.4091 58.308-5.6865l8.674 70.405c-28.721 5.7829-67.898 9.8789-99.51 9.8789zm-747.61-91.223 14.891 68.766s-72.621 25.01-163.65 25.01c-222.87 6.6987-324.99-137.92-343.49-160.57-17.3-21.106-99.222-119.8-99.222-119.8v270.58h-101.2v-553.6h101.2v256.66l214.88-256.66h117.05l-232.99 266.44s61.441 75.657 86.451 102.93c40.479 44.044 167.41 182.83 406.09 100.23zm-380.65-123.27c18.601 20.336 57.442 62.549 117.53 89.439 4.578 2.0243 9.2523 3.9514 13.878 5.7347-17.396-24.529-28.287-59.417-28.287-108.47 0-68.091 28.191-130.54 110.55-130.54 61.056 0 99.174 35.178 97.246 93.391v0.77116c-60.092-2.5537-118.3 2.6982-173.43 7.6618v54.068l273.18 15.035c1.9761-17.252 3.9514-47.949 3.9514-59.417 0-96.764-58.309-176.42-201.48-176.42-150.69 0-214.25 108.04-214.25 195.65 0 3.7586 0.0482 7.469 0.14459 11.132 0.0482 1.3013 0.48198 1.3977 0.96395 1.9761z"
          stroke-width=".81691"/>
</svg>
