<?xml version="1.0" encoding="utf-8"?>
<!-- Generator: Adobe Illustrator 22.1.0, SVG Export Plug-In . SVG Version: 6.00 Build 0)  -->
<svg version="1.1" id="Layer_1" xmlns="http://www.w3.org/2000/svg" xmlns:xlink="http://www.w3.org/1999/xlink" x="0px" y="0px"
	 viewBox="0 0 500 500" style="enable-background:new 0 0 500 500;" xml:space="preserve">
    <rect x="0" y="0" width="500" height="500" fill="white"/>
	<path d="M-4-4v508h508V-4H-4z M457,362h-91V238.4c0-37.8-12.8-52.4-37.6-52.4c-30.1,0-42.4,21.3-42.4,51.9V314h29v48h-91V238.4
		c0-37.8-12.8-52.4-37.6-52.4c-30.1,0-42.4,21.3-42.4,51.9V314h42v48H52v-48h29V190H52v-47h92v32.8c13-23.3,35.9-37.3,66.4-37.3
		c31.5,0,60.6,15,71.3,47c12.1-29.1,36.7-47,71.2-47c39.3,0,75.1,23.8,75.1,75.7V314h29L457,362L457,362z"/>
</svg>
