<svg xmlns="http://www.w3.org/2000/svg" viewBox="0 0 369.8 174.3">
  <path
    id="path"
    fill="none"
    stroke="currentColor"
    stroke-linecap="round"
    stroke-linejoin="round"
    stroke-miterlimit="10"
    stroke-width="8"
    d="M36.6 47c-5.8 42.2 5.6 60.5 22.2 65.4 16.5 4.9 33.4-4.6 44-24.2 0 0 8 27.1 38 26 30-1.1 46-28.3 38-50.7-8-22.4-17.2-38.6-66.9-21M131 56.3a72 72 0 013.2 36.4M193.5 97c-3.6 9 6.4 18.1 15.4 17.3 9-.7 19.7-9 12.5-20.6M231.6 94.6c8.4 11 15.2 16.8 20.9 18.7M262.7 94.6a97.8 97.8 0 00-15.2 44.6M286.3 94.7c-9.2 1.5-17.2 8-16.1 13.9 1 6 12.8 7 21.2 3.4M297.1 50c-1.5 18.8 1.1 60.5 12.3 63.3 11.2 2.8 13.6-18 13.6-18s4.6 16.1 11.7 18.8"/>
</svg>