<?xml version="1.0" standalone="no"?>
<!DOCTYPE svg PUBLIC "-//W3C//DTD SVG 20010904//EN"
 "http://www.w3.org/TR/2001/REC-SVG-20010904/DTD/svg10.dtd">
<svg version="1.0" xmlns="http://www.w3.org/2000/svg"
 width="700.000000pt" height="700.000000pt" viewBox="0 0 700.000000 700.000000"
 preserveAspectRatio="xMidYMid meet">
<metadata>
Created by potrace 1.11, written by Peter Selinger 2001-2013
</metadata>
<g transform="translate(0.000000,700.000000) scale(0.100000,-0.100000)"
fill="#000000" stroke="none">
<path d="M4849 5246 c-2 -2 -33 -6 -69 -10 -57 -5 -166 -22 -280 -41 -105 -19
-405 -92 -470 -115 -14 -4 -52 -16 -85 -26 -78 -22 -333 -108 -365 -123 -70
-33 -102 -156 -58 -220 60 -88 115 -98 261 -47 291 100 640 195 817 222 19 3
42 7 50 9 8 2 38 7 65 10 28 3 66 8 85 11 61 10 383 13 430 4 25 -5 65 -11 90
-15 25 -4 78 -17 118 -31 318 -106 501 -326 698 -837 68 -179 108 -321 118
-422 26 -264 -18 -505 -134 -737 -226 -452 -650 -736 -1191 -797 -77 -9 -342
-7 -394 4 -16 3 -55 10 -85 16 -271 52 -534 205 -716 416 -115 134 -219 309
-274 461 -23 64 -69 119 -105 127 -57 13 -81 13 -113 -1 -49 -20 -67 -38 -104
-103 -159 -281 -367 -520 -588 -676 -308 -216 -644 -282 -968 -189 -390 112
-649 418 -770 909 -19 76 -31 136 -37 180 -16 117 -25 193 -32 260 -14 148 -6
660 11 751 2 10 7 55 11 99 3 44 8 91 10 105 5 26 15 116 19 160 9 99 -101
188 -200 161 -99 -28 -120 -82 -150 -386 -3 -38 -8 -83 -10 -100 -20 -198 -26
-648 -11 -825 32 -369 106 -659 238 -924 58 -116 127 -216 224 -325 200 -224
498 -378 810 -418 77 -9 273 -9 350 1 205 26 432 111 625 234 170 108 395 318
529 494 l74 98 67 -103 c263 -399 624 -642 1087 -729 95 -18 155 -22 308 -22
202 -1 259 4 395 29 647 123 1166 563 1365 1159 20 59 38 118 41 130 39 196
46 258 46 391 1 99 -3 150 -17 252 -31 235 -231 731 -388 965 -214 319 -484
490 -872 554 -42 7 -450 16 -456 10z"/>
<path d="M4374 4387 c-47 -18 -78 -48 -96 -92 -18 -48 -16 -73 22 -190 29 -91
64 -225 74 -280 3 -16 11 -57 17 -90 29 -158 38 -287 34 -510 -3 -212 -6 -254
-21 -340 -24 -140 -11 -194 57 -241 107 -74 234 -3 254 141 3 22 7 54 10 70
23 157 34 476 21 630 -7 81 -18 181 -22 205 -2 14 -9 52 -14 85 -15 88 -19
110 -41 205 -29 127 -97 332 -117 356 -44 52 -118 73 -178 51z"/>
</g>
</svg>
