<svg xmlns="http://www.w3.org/2000/svg" viewBox="0 0 410.208 149.519" id="svg">
  <path fill="none" stroke="currentColor" stroke-linecap="round" stroke-linejoin="round" stroke-miterlimit="10" stroke-width="10.667" d="M7.412 21.397c-7.797 56.169 7.444 80.518 29.534 87.05 22.092 6.532 44.534-6.061 58.827-32.188 0 0 10.556 36.087 50.515 34.616 39.958-1.468 61.398-37.717 50.678-67.598-10.72-29.882-22.903-51.436-89.173-27.922"/>
  <path fill="none" stroke="currentColor" stroke-linecap="round" stroke-linejoin="round" stroke-miterlimit="10" stroke-width="10.667" d="M133.356 33.717c6.434 19.409 6.434 33.736 4.136 48.525m79.074 5.588c-4.839 12.21 8.601 24.248 20.599 23.221 11.989-1.027 26.256-11.959 16.66-27.446m13.608 1.186c11.109 14.721 20.194 22.336 27.77 24.875m13.639-24.875c-9.09 14.721-16.667 29.952-20.2 59.395m51.632-59.272c-12.18 1.96-22.902 10.546-21.44 18.5 1.461 7.952 17.054 9.421 28.262 4.524m7.67-82.787c-2.034 25.188 1.437 80.772 16.336 84.515 14.898 3.742 18.194-23.93 18.194-23.93s6.1 21.451 15.579 25.02"/>
</svg>
