<svg xmlns="http://www.w3.org/2000/svg" viewBox="0 0 1212.445 214.067" id="svg">
  <path fill="currentColor" d="M205.6 166.543c-39.982.004-60.566-24.724-69.79-41.02-22.374 32.234-54.06 46.384-85.2 37.176-28.924-8.554-60.654-38.52-47.58-132.712a7.62 7.62 0 0 1 15.094 2.095C8.954 98.14 21.68 138.255 54.93 148.085a50.09 50.09 0 0 0 14.243 2.083c22.959.004 45.405-16.004 60.948-44.416a7.619 7.619 0 0 1 13.997 1.519c.553 1.85 14.26 45.829 64.573 43.976 24.256-.891 45.332-11.995 57.827-30.463 11.35-16.779 14.221-37.684 7.678-55.921-6.78-18.896-14.182-36.501-30.106-44.273-17.621-8.602-46.263-5.66-87.567 8.993a7.613 7.613 0 0 1-9.726-4.633 7.617 7.617 0 0 1 4.633-9.727c45.987-16.319 77.555-18.964 99.344-8.328 21.046 10.275 30.197 31.73 37.765 52.823 8.179 22.796 4.664 48.815-9.401 69.603-15.247 22.54-40.721 36.083-69.887 37.154a99.593 99.593 0 0 1-3.652.068m108.476.001a7.623 7.623 0 0 1-7.455-6.087c-.173-.845-4.265-20.873-6.365-38.482a7.619 7.619 0 0 1 6.664-8.467 7.608 7.608 0 0 1 8.465 6.664c2.024 16.961 6.123 37.02 6.163 37.223a7.619 7.619 0 0 1-7.472 9.149m116.586-.254a7.621 7.621 0 0 1-7.456-6.089c-.173-.844-4.264-20.873-6.364-38.48a7.613 7.613 0 0 1 6.662-8.468 7.613 7.613 0 0 1 8.468 6.662c2.024 16.962 6.121 37.021 6.162 37.224a7.62 7.62 0 0 1-7.472 9.15m-35.817.255a7.617 7.617 0 0 1-7.613-8.065c2.808-47.93 2.699-81.52-5.516-142.763a7.62 7.62 0 0 1 6.539-8.564c4.162-.566 8.005 2.367 8.564 6.54 8.38 62.476 8.492 96.756 5.625 145.677a7.619 7.619 0 0 1-7.599 7.175m-37.166.001a7.617 7.617 0 0 1-7.615-8.064c2.81-47.933 2.699-81.522-5.513-142.762a7.619 7.619 0 0 1 6.54-8.564 7.613 7.613 0 0 1 8.562 6.537c8.379 62.478 8.49 96.756 5.623 145.68a7.617 7.617 0 0 1-7.597 7.173m120.725-.693a30.49 30.49 0 0 1-2.555-.101c-19.028-.479-26.121-7.727-28.717-13.743-3.326-7.7-.907-17.177 6.469-25.348 7.55-8.359 20.572-15.09 32.656-11.279a7.619 7.619 0 0 1 4.972 9.56 7.61 7.61 0 0 1-9.557 4.972c-4.647-1.465-11.854 1.526-16.759 6.96-3.43 3.796-4.503 7.45-3.793 9.096.85 1.967 5.378 4.342 15.345 4.552.232.005.461.022.69.047.02-.004 7.829.69 13.393-3.917 3.564-2.954 5.669-7.712 6.26-14.148a7.619 7.619 0 0 1 6.49-6.843 7.635 7.635 0 0 1 8.172 4.71c3.468 8.631 9.924 19.291 13.638 20.78a7.619 7.619 0 0 1 4.237 9.907 7.613 7.613 0 0 1-9.907 4.238c-5.285-2.119-9.95-7.4-13.632-12.95a29.815 29.815 0 0 1-5.726 6.195c-7.835 6.381-17 7.31-21.676 7.312m165.979 1.36a7.616 7.616 0 0 1-7.604-8.203c.44-5.752 1.612-21.032-4.24-27.08-.752-.777-3.042-3.14-9.34-2.866-18.092.79-25.797 23.537-25.873 23.768a7.62 7.62 0 0 1-14.836-1.85c-.016-.2-1.995-21.91-13.908-21.91-10.577 0-17.859 5.248-19.017 30.866a7.617 7.617 0 0 1-7.956 7.267 7.617 7.617 0 0 1-7.267-7.956c.508-11.232 2.054-45.416 34.24-45.416 10.337 0 18.757 5.876 23.947 16.625 6.316-8.076 16.024-16.006 30.005-16.617 8.71-.381 15.776 2.139 20.956 7.493 10.62 10.974 9.123 30.503 8.481 38.843a7.62 7.62 0 0 1-7.588 7.036m113.687-41.637a7.62 7.62 0 0 1-7.538-8.79c2.682-17.266 3.86-37.18-5.613-65.754a7.62 7.62 0 0 1 14.464-4.795c10.49 31.646 9.183 53.734 6.207 72.89a7.623 7.623 0 0 1-7.52 6.449"/>
  <path fill="currentColor" d="M841.852 166.913c-14.173 0-30.266-1.005-48.25-3.018-41.915-4.69-79.57-13.343-79.947-13.432a7.619 7.619 0 1 1 3.434-14.846c40.3 9.32 151.327 28.328 180.72 4.7 4.36-3.505 6.362-7.654 6.305-13.058-.206-19.701-9.32-38.125-27.082-54.763C833.548 31.764 753.04 13.94 728.266 15.31c-4.181.221-7.795-2.988-8.025-7.19a7.619 7.619 0 0 1 7.192-8.025C757.73-1.564 841.73 18.551 887.448 61.374c20.916 19.592 31.65 41.704 31.904 65.723.106 10.023-4.044 18.703-12 25.098-12.193 9.8-34.141 14.718-65.5 14.718m121.381-.097c-11.318 0-23.198-6.003-30.251-15.487-6.398-8.602-7.948-18.878-4.258-28.197a7.62 7.62 0 0 1 14.167 5.613c-2.218 5.595.037 10.424 2.317 13.491 4.504 6.057 12.477 9.867 19.379 9.285 8.504-.729 16.904-5.694 19.977-11.81 2.312-4.604 1.639-9.919-2.003-15.796a7.62 7.62 0 0 1 12.954-8.024c6.433 10.385 7.38 21.273 2.665 30.66-6.305 12.552-20.763 19.166-32.296 20.153a31.276 31.276 0 0 1-2.65.112m108.399-51.701a7.623 7.623 0 0 0-10.486 2.478c-5.422 8.78-10.875 18.224-15.736 29.984-8.876-4.92-19.22-15.157-30.854-30.569a7.62 7.62 0 0 0-12.164 9.177c13.828 18.327 26.251 30.112 37.786 35.843-3.748 11.925-6.878 26.06-8.972 43.508a7.621 7.621 0 0 0 7.573 8.53 7.619 7.619 0 0 0 7.556-6.711c5.063-42.156 16.028-62.727 27.776-81.756a7.615 7.615 0 0 0-2.479-10.484m31.024 51.161c-6.881.001-13.343-1.287-18.223-3.88-7.022-3.733-9.326-9.03-10.022-12.817-1.03-5.607.446-11.43 4.27-16.846 6.5-9.208 19.007-16.288 32.643-18.484a7.61 7.61 0 0 1 8.732 6.314 7.62 7.62 0 0 1-6.312 8.733c-9.435 1.516-18.524 6.43-22.616 12.227-.979 1.386-2.072 3.43-1.73 5.301.17.92 1.443 1.72 2.187 2.116 5.374 2.856 17.47 3.19 27.644-1.257a7.617 7.617 0 0 1 10.031 3.93 7.617 7.617 0 0 1-3.93 10.031c-7.042 3.079-15.114 4.632-22.674 4.632m102.163.034c-.891 0-1.8-.155-2.684-.489-7.742-2.917-13.828-10.965-18.26-19.229-2.636 5.793-6.311 11.352-11.388 14.848-5.252 3.619-11.4 4.683-17.768 3.083-31.967-8.03-30.656-109.161-29.076-128.74.338-4.195 4.04-7.328 8.208-6.979a7.615 7.615 0 0 1 6.981 8.207c-1.335 16.524-1.067 44.63 2.544 70.174 4.496 31.803 11.813 41.744 15.055 42.56 2.14.536 3.758.282 5.405-.85 6.279-4.31 10.181-18.763 11.165-26.859a7.627 7.627 0 0 1 6.972-6.681c3.579-.27 6.928 2.018 7.923 5.508 3.105 10.872 10.85 28.152 17.61 30.697a7.62 7.62 0 0 1-2.688 14.75"/>
</svg>
